<?xml version="1.0" encoding="UTF-8"?> <svg xmlns="http://www.w3.org/2000/svg" width="436" height="153" viewBox="0 0 436 153" fill="none"> <g clip-path="url(#clip0_2853_35)"> <path fill-rule="evenodd" clip-rule="evenodd" d="M193.546 25.8594C191.442 25.8594 189.385 26.4853 187.635 27.6578C185.886 28.8304 184.523 30.497 183.719 32.4467C182.914 34.3964 182.704 36.5416 183.115 38.611C183.527 40.6803 184.541 42.5808 186.03 44.072C187.518 45.5631 189.415 46.5779 191.479 46.988C193.543 47.3981 195.681 47.1851 197.624 46.3758C199.568 45.5665 201.228 44.1974 202.395 42.4417C203.562 40.686 204.184 38.6226 204.181 36.5125C204.178 33.6859 203.056 30.9763 201.061 28.9788C199.067 26.9813 196.364 25.8594 193.546 25.8594V25.8594ZM193.546 40.343C192.783 40.343 192.037 40.1161 191.402 39.6909C190.768 39.2658 190.273 38.6615 189.981 37.9545C189.689 37.2475 189.613 36.4695 189.762 35.719C189.91 34.9684 190.278 34.279 190.818 33.7379C191.357 33.1968 192.044 32.8283 192.793 32.679C193.541 32.5297 194.317 32.6063 195.022 32.8992C195.727 33.192 196.33 33.6879 196.753 34.3242C197.177 34.9605 197.404 35.7086 197.404 36.4738C197.404 37.5 196.997 38.4841 196.274 39.2097C195.55 39.9353 194.569 40.343 193.546 40.343Z" fill="#231F20"></path> <path fill-rule="evenodd" clip-rule="evenodd" d="M114.906 128.973C112.516 130.752 110.006 132.364 107.395 133.796C105.561 132.384 103.317 131.61 101.004 131.591C98.6914 131.573 96.4357 132.311 94.5788 133.694C92.7219 135.076 91.3651 137.029 90.714 139.254C90.0628 141.48 90.1529 143.858 90.9706 146.027C91.7882 148.197 93.2888 150.04 95.2449 151.278C97.2011 152.516 99.5061 153.08 101.811 152.885C104.116 152.691 106.294 151.748 108.017 150.2C109.739 148.653 110.912 146.584 111.356 144.307C113.504 143.792 119.651 139.497 121.644 138.065C129.703 132.098 136.511 124.597 141.679 115.991C146.847 107.385 150.274 97.8423 151.765 87.9078C153.255 77.9734 152.78 67.8417 150.365 58.0916C147.951 48.3415 143.645 39.1638 137.694 31.0826C122.802 10.8726 98.3674 -1.32816 73.2128 0.129224C67.1299 0.0131483 66.2168 9.45393 71.5281 9.78926C95.371 11.324 112.681 16.0831 128.627 37.815C136.549 48.5523 140.976 61.4776 141.308 74.8301C141.446 85.2994 139.131 95.6549 134.55 105.063C129.968 114.472 123.249 122.67 114.931 128.998L114.906 128.973ZM72.4926 142.154V83.2391C72.4892 77.0545 70.0389 71.1241 65.6795 66.7498C61.3201 62.3755 55.4081 59.9148 49.2414 59.9079H40.2392C41.3603 66.421 44.7386 72.3279 49.7783 76.5869C54.818 80.8459 61.1954 83.1835 67.7858 83.1875H68.7632V92.6669H67.7858C57.8749 92.6533 48.3739 88.6988 41.3659 81.6706C34.3578 74.6424 30.4147 65.114 30.4011 55.1746V50.4414H49.2156C57.6858 50.4526 65.8218 53.7566 71.9134 59.6589C78.005 65.5612 81.5777 73.602 81.8806 82.0912V83.2777C84.9154 80.1823 88.5342 77.7237 92.5262 76.0453C96.5181 74.3669 100.803 73.5022 105.132 73.5016H123.946V78.2478C123.964 87.5322 120.538 96.4913 114.334 103.383C108.13 110.274 99.5925 114.605 90.3812 115.534L89.4295 115.637L88.465 106.222L89.4424 106.119C95.5147 105.508 101.218 102.912 105.675 98.7315C110.132 94.5506 113.095 89.0165 114.108 82.9811H105.106C98.9416 82.9879 93.0315 85.4469 88.6725 89.8184C84.3135 94.1899 81.8617 100.117 81.8549 106.299V148.293C81.8549 150.64 81.109 152.691 78.0997 153C52.3793 152.742 30.5169 143.16 14.9174 121.969C8.96577 113.89 4.65939 104.714 2.24426 94.9655C-0.170867 85.2169 -0.647452 75.0866 0.841739 65.1532C2.33093 55.2199 5.75672 45.678 10.9235 37.0726C16.0902 28.4671 22.8967 20.9667 30.9541 14.9997C33.4273 13.1713 36.0036 11.4875 38.6703 9.95692C39.146 7.69769 40.3399 5.65429 42.0726 4.13375C43.8054 2.61321 45.9833 1.69766 48.2793 1.52465C50.5752 1.35163 52.8652 1.93051 54.805 3.1743C56.7449 4.41809 58.2298 6.25961 59.0369 8.42218C59.8439 10.5847 59.9293 12.9516 59.2804 15.167C58.6314 17.3824 57.2831 19.3268 55.438 20.708C53.5929 22.0893 51.3507 22.8327 49.0483 22.8267C46.7459 22.8206 44.5076 22.0654 42.6698 20.6745C40.998 21.6934 39.3004 22.8284 37.6157 24.0794C29.8786 29.7967 23.505 37.1666 18.9555 45.6565C17.8496 47.733 11.4323 65.0797 11.2394 75.3202C10.9384 89.6893 15.4029 103.752 23.9324 115.302C37.9244 134.286 53.0094 138.194 71.7724 142.038L72.4926 142.154ZM103.267 145.365C102.656 145.829 101.921 146.1 101.155 146.143C100.39 146.187 99.6289 146 98.9696 145.608C98.3103 145.215 97.7825 144.635 97.4535 143.94C97.1246 143.246 97.0094 142.469 97.1227 141.709C97.2359 140.948 97.5725 140.239 98.0895 139.671C98.6065 139.103 99.2804 138.703 100.025 138.521C100.77 138.339 101.552 138.384 102.272 138.649C102.991 138.915 103.615 139.39 104.064 140.013C104.656 140.832 104.903 141.852 104.754 142.852C104.605 143.852 104.071 144.755 103.267 145.365V145.365ZM46.9394 9.1057C46.3174 9.55497 45.8429 10.1799 45.5765 10.9007C45.3101 11.6215 45.2639 12.4056 45.4437 13.1529C45.6235 13.9001 46.0211 14.5768 46.586 15.0965C47.1508 15.6161 47.8572 15.9553 48.6151 16.0707C49.3729 16.1861 50.1479 16.0724 50.841 15.7443C51.5342 15.4161 52.1142 14.8883 52.507 14.2282C52.8999 13.5681 53.0877 12.8056 53.0466 12.038C53.0056 11.2703 52.7374 10.5324 52.2764 9.91823C51.6695 9.10973 50.7708 8.57188 49.7732 8.42C48.7755 8.26811 47.7582 8.51427 46.9394 9.1057" fill="#0F9F4A"></path> <path d="M187.502 106.931H195.218C196.371 106.931 197.477 106.472 198.292 105.655C199.107 104.837 199.565 103.728 199.565 102.572V57.2383H187.477L187.502 106.931Z" fill="#231F20"></path> <path d="M269.125 40.9199V32.6914H217.62C217.158 32.6914 216.716 32.8744 216.388 33.2006C216.06 33.5267 215.874 33.9696 215.871 34.4325V106.928H224.552C225.705 106.928 226.81 106.469 227.625 105.651C228.441 104.834 228.898 103.725 228.898 102.569V79.3536H250.311C251.464 79.3536 252.569 78.8944 253.384 78.0768C254.2 77.2593 254.658 76.1505 254.658 74.9944V66.7659H228.937V45.292H264.766C265.338 45.292 265.904 45.1788 266.432 44.959C266.96 44.7391 267.44 44.4168 267.844 44.0107C268.248 43.6045 268.568 43.1224 268.785 42.592C269.003 42.0617 269.114 41.4934 269.112 40.9199" fill="#231F20"></path> <path d="M289.201 57.2383C274.18 57.2383 263.699 67.9043 263.699 83.1746C263.699 97.3616 272.997 106.983 286.848 106.983C290.706 106.983 297.714 105.822 302.138 100.779V102.624C302.138 103.197 302.251 103.765 302.471 104.295C302.69 104.825 303.011 105.306 303.416 105.711C303.821 106.116 304.302 106.437 304.831 106.655C305.36 106.873 305.926 106.985 306.498 106.983H314.214V83.2907C314.214 67.2207 304.62 57.2383 289.188 57.2383H289.201ZM289.188 96.7941C283.054 96.7941 275.891 93.1313 275.891 82.8264C275.891 72.5215 283.054 68.8974 289.188 68.8974C294.024 68.8974 302.126 70.7546 302.126 83.1746C302.126 92.2027 297.779 96.7941 289.188 96.7941" fill="#231F20"></path> <path d="M347.651 57.2391C334.688 57.2391 327.307 64.7711 327.307 78.0037V106.932H335.023C335.595 106.934 336.161 106.822 336.69 106.604C337.219 106.386 337.7 106.065 338.105 105.66C338.51 105.255 338.831 104.774 339.05 104.244C339.269 103.714 339.382 103.146 339.382 102.573V78.0037C339.382 71.9678 342.469 68.8982 348.577 68.8982C350.202 68.9021 351.821 69.0969 353.4 69.4786C353.847 69.5833 354.317 69.5064 354.707 69.2647C355.097 69.0231 355.376 68.6363 355.483 68.1889L357.927 59.0576C354.603 57.9471 351.139 57.3174 347.639 57.1875" fill="#231F20"></path> <path d="M414.253 57.2391C407.643 57.2391 401.843 59.8186 398.538 64.0746C395.13 59.7799 389.343 57.2391 382.836 57.2391C369.422 57.2391 361.076 65.7384 361.076 79.4095V106.932H368.792C369.364 106.934 369.931 106.822 370.46 106.604C370.989 106.386 371.469 106.065 371.874 105.66C372.279 105.255 372.601 104.774 372.82 104.244C373.039 103.714 373.152 103.146 373.152 102.573V79.3579C373.152 72.2902 376.316 68.8466 382.81 68.8466C389.047 68.8466 392.211 72.058 392.468 78.6614V106.932H400.184C400.756 106.934 401.323 106.822 401.851 106.604C402.38 106.386 402.861 106.065 403.266 105.66C403.671 105.255 403.992 104.774 404.212 104.244C404.431 103.714 404.544 103.146 404.544 102.573V78.7388C404.801 72.0193 407.874 68.8982 414.202 68.8982C420.529 68.8982 423.86 72.3418 423.86 79.4095V106.932H431.576C432.148 106.934 432.714 106.822 433.243 106.604C433.772 106.386 434.253 106.065 434.658 105.66C435.063 105.255 435.384 104.774 435.603 104.244C435.823 103.714 435.935 103.146 435.935 102.573V79.3579C435.935 65.6868 427.589 57.1875 414.176 57.1875" fill="#231F20"></path> </g> <defs> <clipPath id="clip0_2853_35"> <rect width="436" height="153" fill="white"></rect> </clipPath> </defs> </svg> 