<?xml version="1.0" encoding="UTF-8"?> <svg xmlns="http://www.w3.org/2000/svg" width="48" height="48" viewBox="0 0 48 48" fill="none"> <path d="M23.999 17.6211C20.4806 17.6211 17.623 20.4739 17.623 23.9987C17.623 27.5219 20.4822 30.3779 23.999 30.3779C27.5174 30.3779 30.3782 27.5219 30.3782 23.9987C30.3782 20.4739 27.5174 17.6211 23.999 17.6211ZM23.999 28.1683C21.6886 28.1683 19.8278 26.3011 19.8278 23.9987C19.8278 21.6963 21.6886 19.8291 23.999 19.8291C26.2854 19.8291 28.1702 21.6963 28.1702 23.9987C28.1702 26.3011 26.3094 28.1683 23.999 28.1683Z" fill="#0F9F4A"></path> <path d="M31.0169 15.2891C30.1961 15.2891 29.5449 15.9419 29.5449 16.7627C29.5449 17.5819 30.1961 18.2331 31.0169 18.2331C31.8377 18.2331 32.4905 17.5819 32.4905 16.7627C32.4905 15.9419 31.8361 15.2891 31.0169 15.2891Z" fill="#0F9F4A"></path> <path d="M24.0031 0.238281C10.8767 0.238281 0.238281 10.8735 0.238281 23.9983C0.238281 37.1199 10.8767 47.7583 24.0031 47.7583C37.1215 47.7583 47.7631 37.1215 47.7631 23.9983C47.7631 10.8735 37.1215 0.238281 24.0031 0.238281ZM36.2655 29.2223C36.2655 33.0991 33.0991 36.2639 29.1999 36.2639H18.7999C14.8991 36.2639 11.7327 33.0975 11.7327 29.2463V18.7727C11.7327 14.8975 14.8975 11.7327 18.7999 11.7327H29.1999C33.1007 11.7327 36.2655 14.8975 36.2655 18.7727V29.2223Z" fill="#0F9F4A"></path> </svg> 