<?xml version="1.0" encoding="UTF-8"?> <svg xmlns="http://www.w3.org/2000/svg" width="500" height="500" viewBox="0 0 500 500" fill="none"> <path fill-rule="evenodd" clip-rule="evenodd" d="M250 0C388.071 0 500 111.929 500 250C500 388.071 388.071 500 250 500C111.929 500 0 388.071 0 250C0 111.929 111.929 0 250 0ZM90 128.842C90 107.389 107.35 90 128.763 90C150.177 90 167.526 107.389 167.526 128.842C167.526 150.295 150.177 167.684 128.763 167.684C107.35 167.684 90 150.295 90 128.842ZM331.789 191.158V191.132C336.168 191.147 340.643 191.365 346.658 191.737C375.888 193.543 408.463 216.424 409.421 270.053C410.086 307.268 410.023 362.828 409.986 394.815C409.98 400.79 409.974 405.943 409.974 410H343.5C343.5 398.063 343.559 380.369 343.624 361.002C343.703 337.592 343.789 311.74 343.789 290.658C343.789 273.13 335.948 249.553 307.974 249.553C277.166 249.553 269.658 278.237 269.658 290.658C269.658 311.251 269.56 338.636 269.473 362.914C269.404 382.244 269.342 399.605 269.342 410H203.263C203.263 390.08 203.37 345.749 203.476 301.765C203.581 258.466 203.684 215.504 203.684 196.5C224.946 196.5 239.304 196.469 250.126 196.446C256.673 196.432 261.926 196.421 266.632 196.421C266.632 203.187 266.601 208.749 266.573 213.874C266.549 218.251 266.526 222.31 266.526 226.526C276.949 205.443 305.416 192.236 317.605 191.605C323.163 191.318 327.411 191.142 331.789 191.158ZM95.5789 409.895V197.342H161.842V409.895H95.5789Z" fill="#0F9F4A"></path> </svg> 