<?xml version="1.0" encoding="UTF-8"?> <svg xmlns="http://www.w3.org/2000/svg" width="48" height="48" viewBox="0 0 48 48" fill="none"> <path d="M24.0007 0.0117188C37.2487 0.0117188 47.9877 10.7517 47.9877 23.9987C47.9877 37.2457 37.2477 47.9857 24.0007 47.9857C10.7537 47.9857 0.0136719 37.2457 0.0136719 23.9987C0.0136719 10.7517 10.7527 0.0117188 24.0007 0.0117188ZM35.8157 18.0917C35.5657 16.7547 34.4527 15.7567 33.1737 15.6337C30.1197 15.4377 27.0547 15.2787 23.9957 15.2767C20.9367 15.2747 17.8827 15.4307 14.8287 15.6237C13.5447 15.7477 12.4317 16.7407 12.1827 18.0827C11.8987 20.0157 11.7567 21.9677 11.7567 23.9187C11.7567 25.8697 11.8987 27.8217 12.1827 29.7547C12.4317 31.0967 13.5447 32.2087 14.8287 32.3317C17.8837 32.5247 20.9357 32.7217 23.9957 32.7217C27.0537 32.7217 30.1217 32.5497 33.1737 32.3517C34.4527 32.2277 35.5657 31.0827 35.8157 29.7457C36.1017 27.8157 36.2447 25.8667 36.2447 23.9177C36.2447 21.9697 36.1017 20.0217 35.8157 18.0917ZM21.2247 27.4337V20.3187L27.8517 23.8767L21.2247 27.4337Z" fill="#0F9F4A"></path> </svg> 